<svg xmlns="http://www.w3.org/2000/svg" xmlns:xlink="http://www.w3.org/1999/xlink" width="500" zoomAndPan="magnify" viewBox="0 0 375 149.999998" height="200" preserveAspectRatio="xMidYMid meet" version="1.0"><defs><g/><clipPath id="f3ed82308b"><path d="M 26 42 L 65 42 L 65 97 L 26 97 Z M 26 42 " clip-rule="nonzero"/></clipPath><clipPath id="b10a86aa2f"><path d="M 54.507812 39.628906 L 67.429688 47.230469 L 36.800781 99.261719 L 23.882812 91.65625 Z M 54.507812 39.628906 " clip-rule="nonzero"/></clipPath><clipPath id="a63d8ee051"><path d="M 60.96875 43.429688 C 62.679688 44.4375 63.925781 46.085938 64.421875 48.011719 C 64.921875 49.933594 64.632812 51.980469 63.625 53.691406 L 40.632812 92.757812 C 39.621094 94.46875 37.976562 95.710938 36.050781 96.210938 C 34.125 96.707031 32.082031 96.421875 30.367188 95.414062 C 28.65625 94.40625 27.414062 92.757812 26.914062 90.832031 C 26.417969 88.910156 26.703125 86.863281 27.710938 85.152344 L 50.707031 46.085938 C 51.714844 44.375 53.363281 43.132812 55.285156 42.632812 C 57.210938 42.136719 59.253906 42.421875 60.96875 43.429688 Z M 60.96875 43.429688 " clip-rule="nonzero"/></clipPath><clipPath id="16bc183252"><path d="M 0.398438 0 L 39 0 L 39 54.71875 L 0.398438 54.71875 Z M 0.398438 0 " clip-rule="nonzero"/></clipPath><clipPath id="f0733929b1"><path d="M 28.507812 -2.371094 L 41.429688 5.230469 L 10.800781 57.261719 L -2.117188 49.65625 Z M 28.507812 -2.371094 " clip-rule="nonzero"/></clipPath><clipPath id="b2f02e8a00"><path d="M 34.96875 1.429688 C 36.679688 2.4375 37.925781 4.085938 38.421875 6.011719 C 38.921875 7.933594 38.632812 9.980469 37.625 11.691406 L 14.632812 50.757812 C 13.621094 52.46875 11.976562 53.710938 10.050781 54.210938 C 8.125 54.707031 6.082031 54.421875 4.367188 53.414062 C 2.65625 52.40625 1.414062 50.757812 0.914062 48.832031 C 0.417969 46.910156 0.703125 44.863281 1.710938 43.152344 L 24.707031 4.085938 C 25.714844 2.375 27.363281 1.132812 29.285156 0.632812 C 31.210938 0.136719 33.253906 0.421875 34.96875 1.429688 Z M 34.96875 1.429688 " clip-rule="nonzero"/></clipPath><clipPath id="93eae85097"><rect x="0" width="39" y="0" height="55"/></clipPath><clipPath id="2c59740869"><path d="M 53.238281 80.441406 L 62.121094 80.441406 L 62.121094 89.324219 L 53.238281 89.324219 Z M 53.238281 80.441406 " clip-rule="nonzero"/></clipPath><clipPath id="1aa7215e4b"><path d="M 57.679688 80.441406 C 55.226562 80.441406 53.238281 82.429688 53.238281 84.882812 C 53.238281 87.335938 55.226562 89.324219 57.679688 89.324219 C 60.132812 89.324219 62.121094 87.335938 62.121094 84.882812 C 62.121094 82.429688 60.132812 80.441406 57.679688 80.441406 Z M 57.679688 80.441406 " clip-rule="nonzero"/></clipPath><clipPath id="d9e4520401"><path d="M 0.238281 0.441406 L 9.121094 0.441406 L 9.121094 9.324219 L 0.238281 9.324219 Z M 0.238281 0.441406 " clip-rule="nonzero"/></clipPath><clipPath id="b753b63900"><path d="M 4.679688 0.441406 C 2.226562 0.441406 0.238281 2.429688 0.238281 4.882812 C 0.238281 7.335938 2.226562 9.324219 4.679688 9.324219 C 7.132812 9.324219 9.121094 7.335938 9.121094 4.882812 C 9.121094 2.429688 7.132812 0.441406 4.679688 0.441406 Z M 4.679688 0.441406 " clip-rule="nonzero"/></clipPath><clipPath id="ca591355b5"><rect x="0" width="10" y="0" height="10"/></clipPath><clipPath id="d3dba67a57"><path d="M 50 42 L 89 42 L 89 97 L 50 97 Z M 50 42 " clip-rule="nonzero"/></clipPath><clipPath id="a57f3e1a43"><path d="M 47.546875 47.039062 L 60.515625 39.515625 L 90.816406 91.738281 L 77.847656 99.261719 Z M 47.546875 47.039062 " clip-rule="nonzero"/></clipPath><clipPath id="81d6fef93e"><path d="M 54.03125 43.277344 C 55.75 42.28125 57.796875 42.007812 59.71875 42.515625 C 61.640625 43.027344 63.28125 44.28125 64.277344 46 L 87.027344 85.207031 C 88.023438 86.925781 88.296875 88.972656 87.785156 90.894531 C 87.277344 92.816406 86.023438 94.453125 84.304688 95.453125 C 82.585938 96.449219 80.539062 96.722656 78.617188 96.214844 C 76.695312 95.703125 75.054688 94.449219 74.058594 92.730469 L 51.308594 53.523438 C 50.3125 51.804688 50.039062 49.757812 50.550781 47.835938 C 51.058594 45.914062 52.3125 44.277344 54.03125 43.277344 Z M 54.03125 43.277344 " clip-rule="nonzero"/></clipPath><clipPath id="280c0802e4"><path d="M 0 0 L 38.320312 0 L 38.320312 54.960938 L 0 54.960938 Z M 0 0 " clip-rule="nonzero"/></clipPath><clipPath id="e10dabbcf0"><path d="M -2.453125 5.039062 L 10.515625 -2.484375 L 40.816406 49.738281 L 27.847656 57.261719 Z M -2.453125 5.039062 " clip-rule="nonzero"/></clipPath><clipPath id="3bb81f81e6"><path d="M 4.03125 1.277344 C 5.75 0.28125 7.796875 0.0078125 9.71875 0.515625 C 11.640625 1.027344 13.28125 2.28125 14.277344 4 L 37.027344 43.207031 C 38.023438 44.925781 38.296875 46.972656 37.785156 48.894531 C 37.277344 50.816406 36.023438 52.453125 34.304688 53.453125 C 32.585938 54.449219 30.539062 54.722656 28.617188 54.214844 C 26.695312 53.703125 25.054688 52.449219 24.058594 50.730469 L 1.308594 11.523438 C 0.3125 9.804688 0.0390625 7.757812 0.550781 5.835938 C 1.058594 3.914062 2.3125 2.277344 4.03125 1.277344 Z M 4.03125 1.277344 " clip-rule="nonzero"/></clipPath><clipPath id="a30c60fae6"><rect x="0" width="39" y="0" height="55"/></clipPath></defs><g clip-path="url(#f3ed82308b)"><g clip-path="url(#b10a86aa2f)"><g clip-path="url(#a63d8ee051)"><g transform="matrix(1, 0, 0, 1, 26, 42)"><g clip-path="url(#93eae85097)"><g clip-path="url(#16bc183252)"><g clip-path="url(#f0733929b1)"><g clip-path="url(#b2f02e8a00)"><path fill="#4d00ff" d="M 28.507812 -2.371094 L 41.429688 5.230469 L 10.832031 57.210938 L -2.089844 49.609375 Z M 28.507812 -2.371094 " fill-opacity="1" fill-rule="nonzero"/></g></g></g></g></g></g></g></g><g clip-path="url(#2c59740869)"><g clip-path="url(#1aa7215e4b)"><g transform="matrix(1, 0, 0, 1, 53, 80)"><g clip-path="url(#ca591355b5)"><g clip-path="url(#d9e4520401)"><g clip-path="url(#b753b63900)"><path fill="#4d00ff" d="M 0.238281 0.441406 L 9.121094 0.441406 L 9.121094 9.324219 L 0.238281 9.324219 Z M 0.238281 0.441406 " fill-opacity="1" fill-rule="nonzero"/></g></g></g></g></g></g><g fill="#000000" fill-opacity="1"><g transform="translate(93.684732, 94.874996)"><g><path d="M 21.640625 1.21875 C 18.921875 1.21875 16.40625 0.671875 14.09375 -0.421875 C 11.789062 -1.523438 9.785156 -3.050781 8.078125 -5 C 6.367188 -6.957031 5.046875 -9.226562 4.109375 -11.8125 C 3.171875 -14.394531 2.703125 -17.160156 2.703125 -20.109375 C 2.703125 -23.054688 3.175781 -25.8125 4.125 -28.375 C 5.082031 -30.945312 6.414062 -33.210938 8.125 -35.171875 C 9.832031 -37.128906 11.832031 -38.660156 14.125 -39.765625 C 16.414062 -40.878906 18.90625 -41.4375 21.59375 -41.4375 C 24.882812 -41.4375 27.804688 -40.722656 30.359375 -39.296875 C 32.910156 -37.878906 34.828125 -35.914062 36.109375 -33.40625 L 36.109375 -40.21875 L 45.109375 -40.21875 L 45.109375 0 L 36.109375 0 L 36.109375 -6.765625 C 34.804688 -4.265625 32.882812 -2.304688 30.34375 -0.890625 C 27.800781 0.515625 24.898438 1.21875 21.640625 1.21875 Z M 23.90625 -7.546875 C 25.550781 -7.546875 27.085938 -7.863281 28.515625 -8.5 C 29.953125 -9.144531 31.210938 -10.035156 32.296875 -11.171875 C 33.378906 -12.304688 34.21875 -13.632812 34.8125 -15.15625 C 35.414062 -16.6875 35.71875 -18.335938 35.71875 -20.109375 C 35.71875 -21.859375 35.410156 -23.492188 34.796875 -25.015625 C 34.179688 -26.546875 33.335938 -27.882812 32.265625 -29.03125 C 31.203125 -30.175781 29.953125 -31.066406 28.515625 -31.703125 C 27.085938 -32.347656 25.550781 -32.671875 23.90625 -32.671875 C 21.738281 -32.671875 19.757812 -32.144531 17.96875 -31.09375 C 16.1875 -30.050781 14.757812 -28.59375 13.6875 -26.71875 C 12.625 -24.84375 12.09375 -22.640625 12.09375 -20.109375 C 12.09375 -17.503906 12.632812 -15.257812 13.71875 -13.375 C 14.800781 -11.5 16.238281 -10.054688 18.03125 -9.046875 C 19.832031 -8.046875 21.789062 -7.546875 23.90625 -7.546875 Z M 23.90625 -7.546875 "/></g></g></g><g fill="#000000" fill-opacity="1"><g transform="translate(139.699408, 94.874996)"><g><path d="M 30.28125 0 L 22.109375 0 C 20.910156 0 19.675781 -0.109375 18.40625 -0.328125 C 17.144531 -0.554688 15.9375 -0.96875 14.78125 -1.5625 C 13.632812 -2.164062 12.613281 -3.035156 11.71875 -4.171875 C 10.820312 -5.304688 10.101562 -6.78125 9.5625 -8.59375 C 9.03125 -10.40625 8.765625 -12.640625 8.765625 -15.296875 L 8.765625 -32.078125 L 0.4375 -32.078125 L 0.4375 -40.21875 L 8.765625 -40.21875 L 8.765625 -52 L 18.234375 -52.078125 L 18.234375 -40.21875 L 30.28125 -40.21875 L 30.28125 -32.078125 L 18.234375 -32.078125 L 18.234375 -14.859375 C 18.234375 -12.984375 18.503906 -11.535156 19.046875 -10.515625 C 19.597656 -9.503906 20.320312 -8.804688 21.21875 -8.421875 C 22.125 -8.046875 23.070312 -7.859375 24.0625 -7.859375 L 30.28125 -7.859375 Z M 30.28125 0 "/></g></g></g><g fill="#000000" fill-opacity="1"><g transform="translate(167.44428, 94.874996)"><g><path d="M 43.8125 -20.8125 C 43.8125 -20.320312 43.796875 -19.851562 43.765625 -19.40625 C 43.742188 -18.957031 43.695312 -18.359375 43.625 -17.609375 L 12.203125 -17.609375 C 12.546875 -15.410156 13.242188 -13.539062 14.296875 -12 C 15.359375 -10.46875 16.671875 -9.289062 18.234375 -8.46875 C 19.796875 -7.644531 21.503906 -7.234375 23.359375 -7.234375 C 25.753906 -7.234375 27.695312 -7.707031 29.1875 -8.65625 C 30.675781 -9.613281 31.757812 -10.941406 32.4375 -12.640625 L 42.765625 -12.640625 C 42.265625 -10.835938 41.445312 -9.097656 40.3125 -7.421875 C 39.175781 -5.753906 37.785156 -4.273438 36.140625 -2.984375 C 34.503906 -1.703125 32.625 -0.679688 30.5 0.078125 C 28.375 0.835938 26.054688 1.21875 23.546875 1.21875 C 20.523438 1.21875 17.742188 0.664062 15.203125 -0.4375 C 12.660156 -1.550781 10.457031 -3.085938 8.59375 -5.046875 C 6.726562 -7.003906 5.28125 -9.273438 4.25 -11.859375 C 3.21875 -14.441406 2.703125 -17.191406 2.703125 -20.109375 C 2.703125 -23.054688 3.21875 -25.8125 4.25 -28.375 C 5.28125 -30.945312 6.726562 -33.210938 8.59375 -35.171875 C 10.457031 -37.128906 12.660156 -38.660156 15.203125 -39.765625 C 17.742188 -40.878906 20.523438 -41.4375 23.546875 -41.4375 C 26.578125 -41.4375 29.335938 -40.882812 31.828125 -39.78125 C 34.316406 -38.6875 36.453125 -37.179688 38.234375 -35.265625 C 40.023438 -33.347656 41.398438 -31.148438 42.359375 -28.671875 C 43.328125 -26.191406 43.8125 -23.570312 43.8125 -20.8125 Z M 12.59375 -24.921875 L 34.15625 -24.921875 C 34.019531 -26.429688 33.457031 -27.804688 32.46875 -29.046875 C 31.476562 -30.285156 30.203125 -31.28125 28.640625 -32.03125 C 27.078125 -32.789062 25.367188 -33.171875 23.515625 -33.171875 C 21.921875 -33.171875 20.394531 -32.878906 18.9375 -32.296875 C 17.476562 -31.710938 16.191406 -30.8125 15.078125 -29.59375 C 13.972656 -28.382812 13.144531 -26.828125 12.59375 -24.921875 Z M 12.59375 -24.921875 "/></g></g></g><g fill="#000000" fill-opacity="1"><g transform="translate(208.764361, 94.874996)"><g><path d="M 43.8125 -20.8125 C 43.8125 -20.320312 43.796875 -19.851562 43.765625 -19.40625 C 43.742188 -18.957031 43.695312 -18.359375 43.625 -17.609375 L 12.203125 -17.609375 C 12.546875 -15.410156 13.242188 -13.539062 14.296875 -12 C 15.359375 -10.46875 16.671875 -9.289062 18.234375 -8.46875 C 19.796875 -7.644531 21.503906 -7.234375 23.359375 -7.234375 C 25.753906 -7.234375 27.695312 -7.707031 29.1875 -8.65625 C 30.675781 -9.613281 31.757812 -10.941406 32.4375 -12.640625 L 42.765625 -12.640625 C 42.265625 -10.835938 41.445312 -9.097656 40.3125 -7.421875 C 39.175781 -5.753906 37.785156 -4.273438 36.140625 -2.984375 C 34.503906 -1.703125 32.625 -0.679688 30.5 0.078125 C 28.375 0.835938 26.054688 1.21875 23.546875 1.21875 C 20.523438 1.21875 17.742188 0.664062 15.203125 -0.4375 C 12.660156 -1.550781 10.457031 -3.085938 8.59375 -5.046875 C 6.726562 -7.003906 5.28125 -9.273438 4.25 -11.859375 C 3.21875 -14.441406 2.703125 -17.191406 2.703125 -20.109375 C 2.703125 -23.054688 3.21875 -25.8125 4.25 -28.375 C 5.28125 -30.945312 6.726562 -33.210938 8.59375 -35.171875 C 10.457031 -37.128906 12.660156 -38.660156 15.203125 -39.765625 C 17.742188 -40.878906 20.523438 -41.4375 23.546875 -41.4375 C 26.578125 -41.4375 29.335938 -40.882812 31.828125 -39.78125 C 34.316406 -38.6875 36.453125 -37.179688 38.234375 -35.265625 C 40.023438 -33.347656 41.398438 -31.148438 42.359375 -28.671875 C 43.328125 -26.191406 43.8125 -23.570312 43.8125 -20.8125 Z M 12.59375 -24.921875 L 34.15625 -24.921875 C 34.019531 -26.429688 33.457031 -27.804688 32.46875 -29.046875 C 31.476562 -30.285156 30.203125 -31.28125 28.640625 -32.03125 C 27.078125 -32.789062 25.367188 -33.171875 23.515625 -33.171875 C 21.921875 -33.171875 20.394531 -32.878906 18.9375 -32.296875 C 17.476562 -31.710938 16.191406 -30.8125 15.078125 -29.59375 C 13.972656 -28.382812 13.144531 -26.828125 12.59375 -24.921875 Z M 12.59375 -24.921875 "/></g></g></g><g fill="#000000" fill-opacity="1"><g transform="translate(250.084442, 94.874996)"><g><path d="M 15.03125 0 L 5.5625 0 L 5.5625 -40.21875 L 14.546875 -40.21875 L 14.546875 -33.953125 C 15.335938 -35.421875 16.410156 -36.710938 17.765625 -37.828125 C 19.117188 -38.953125 20.695312 -39.832031 22.5 -40.46875 C 24.300781 -41.113281 26.226562 -41.4375 28.28125 -41.4375 C 33.6875 -41.4375 37.726562 -39.71875 40.40625 -36.28125 C 43.09375 -32.851562 44.4375 -27.984375 44.4375 -21.671875 L 44.4375 0 L 34.96875 0 L 34.96875 -21.484375 C 34.96875 -25.472656 34.132812 -28.335938 32.46875 -30.078125 C 30.800781 -31.828125 28.535156 -32.703125 25.671875 -32.703125 C 23.816406 -32.703125 22.078125 -32.234375 20.453125 -31.296875 C 18.835938 -30.359375 17.53125 -28.988281 16.53125 -27.1875 C 15.53125 -25.382812 15.03125 -23.171875 15.03125 -20.546875 Z M 15.03125 0 "/></g></g></g><g fill="#000000" fill-opacity="1"><g transform="translate(295.121061, 94.874996)"><g><path d="M 22.140625 1.21875 C 19.296875 1.21875 16.679688 0.671875 14.296875 -0.421875 C 11.910156 -1.523438 9.859375 -3.050781 8.140625 -5 C 6.421875 -6.957031 5.082031 -9.226562 4.125 -11.8125 C 3.175781 -14.394531 2.703125 -17.160156 2.703125 -20.109375 C 2.703125 -23.054688 3.164062 -25.8125 4.09375 -28.375 C 5.019531 -30.945312 6.347656 -33.210938 8.078125 -35.171875 C 9.816406 -37.128906 11.882812 -38.660156 14.28125 -39.765625 C 16.675781 -40.878906 19.335938 -41.4375 22.265625 -41.4375 C 24.453125 -41.4375 26.4375 -41.050781 28.21875 -40.28125 C 30.007812 -39.507812 31.550781 -38.53125 32.84375 -37.34375 C 34.132812 -36.15625 35.132812 -34.921875 35.84375 -33.640625 L 35.640625 -37.828125 L 35.640625 -55.09375 L 45.078125 -55.09375 L 45.078125 0 L 36.078125 0 L 36.078125 -6.765625 C 35.285156 -5.359375 34.222656 -4.046875 32.890625 -2.828125 C 31.566406 -1.617188 30.003906 -0.644531 28.203125 0.09375 C 26.410156 0.84375 24.390625 1.21875 22.140625 1.21875 Z M 23.859375 -7.515625 C 25.503906 -7.515625 27.046875 -7.832031 28.484375 -8.46875 C 29.921875 -9.101562 31.175781 -9.992188 32.25 -11.140625 C 33.332031 -12.296875 34.179688 -13.632812 34.796875 -15.15625 C 35.410156 -16.6875 35.71875 -18.335938 35.71875 -20.109375 C 35.71875 -21.878906 35.414062 -23.519531 34.8125 -25.03125 C 34.21875 -26.550781 33.378906 -27.882812 32.296875 -29.03125 C 31.210938 -30.175781 29.953125 -31.066406 28.515625 -31.703125 C 27.085938 -32.347656 25.535156 -32.671875 23.859375 -32.671875 C 21.648438 -32.671875 19.644531 -32.128906 17.84375 -31.046875 C 16.039062 -29.960938 14.617188 -28.476562 13.578125 -26.59375 C 12.535156 -24.71875 12.015625 -22.554688 12.015625 -20.109375 C 12.015625 -17.734375 12.519531 -15.59375 13.53125 -13.6875 C 14.550781 -11.789062 15.953125 -10.285156 17.734375 -9.171875 C 19.523438 -8.066406 21.566406 -7.515625 23.859375 -7.515625 Z M 23.859375 -7.515625 "/></g></g></g><g clip-path="url(#d3dba67a57)"><g clip-path="url(#a57f3e1a43)"><g clip-path="url(#81d6fef93e)"><g transform="matrix(1, 0, 0, 1, 50, 42)"><g clip-path="url(#a30c60fae6)"><g clip-path="url(#280c0802e4)"><g clip-path="url(#e10dabbcf0)"><g clip-path="url(#3bb81f81e6)"><path fill="#4d00ff" d="M -2.453125 5.039062 L 10.515625 -2.484375 L 40.785156 49.6875 L 27.820312 57.210938 Z M -2.453125 5.039062 " fill-opacity="1" fill-rule="nonzero"/></g></g></g></g></g></g></g></g></svg>